# xmcd CD database file
#
# Track frame offsets:
#	150
#	7369
#	39165
#	55989
#	76121
#	87512
#	101762
#	122961
#	136916
#	155911
#	169419
#	195920
#	223124
#
# Disc length: 3237 seconds
#
# Revision: 12
# Processed by: cddbd v1.5.2PL0 Copyright (c) Steve Scherf et al.
# Submitted via: CDex 1.70beta3
#
DISCID=b60ca30d
DTITLE=双海亜美 真美(CV:下田麻美) 三浦あずさ(CV:たかはし智秋) 水瀬伊織(CV:釘宮理恵) 萩原雪歩(CV:落合祐里香) 秋月律子(CV:若林直美) - THE iDOLM@STER Vacation for you!
DYEAR=2008
DGENRE=Game
TTITLE0=VACATION
TTITLE1=SCENE01
TTITLE2=水瀬伊織(CV:釘宮理恵)/カナリア諸島にて
TTITLE3=SCENE02
TTITLE4=秋月律子(CV:若林直美)/Sunny Day Sunday
TTITLE5=SCENE03
TTITLE6=三浦あずさ(CV:たかはし智秋)/愛より青い海
TTITLE7=SCENE04
TTITLE8=双海亜美／真美(CV:下田麻美)/夏空グラフィティ
TTITLE9=SCENE05
TTITLE10=萩原雪歩(CV:落合祐里香)/夏影
TTITLE11=SCENE06
TTITLE12=サニー
EXTD=YEAR: 2008
EXTT0=
EXTT1=
EXTT2=
EXTT3=
EXTT4=
EXTT5=
EXTT6=
EXTT7=
EXTT8=
EXTT9=
EXTT10=
EXTT11=
EXTT12=
PLAYORDER=
